<?xml version="1.0" encoding="utf-8"?>
<!-- Generator: Adobe Illustrator 16.0.4, SVG Export Plug-In . SVG Version: 6.00 Build 0)  -->
<!DOCTYPE svg PUBLIC "-//W3C//DTD SVG 1.1//EN" "http://www.w3.org/Graphics/SVG/1.1/DTD/svg11.dtd">
<svg version="1.1" id="Laag_1" xmlns="http://www.w3.org/2000/svg" xmlns:xlink="http://www.w3.org/1999/xlink" x="0px" y="0px"
	 width="239.749px" height="228.924px" viewBox="0 0 239.749 228.924" enable-background="new 0 0 239.749 228.924"
	 xml:space="preserve">
<polygon fill="#650360" points="119.871,0 0,63.699 0,174.397 119.871,174.397 119.871,54.523 77.675,54.523 "/>
<polygon fill="#00A8FF" points="119.871,54.526 119.871,174.396 162.07,174.396 119.871,228.924 239.749,165.223 239.749,54.526 "/>
<g>
	<defs>
		<rect id="SVGID_1_" x="-21.646" y="-27.057" width="283.038" height="283.038"/>
	</defs>
	<clipPath id="SVGID_2_">
		<use xlink:href="#SVGID_1_"  overflow="visible"/>
	</clipPath>
	<path clip-path="url(#SVGID_2_)" fill="#FFFFFF" d="M155.484,138.964v-2.319c-1.444,2.475-4.133,4.004-7.272,4.004
		c-3.144,0-6.76-1.844-6.76-9.209v-14.735l5.018-0.938v15.342c0,1.374,0.234,3.258,1.237,4.19c1.852,1.714,5.505,0.649,7.721-3.223
		v-15.368l4.968-0.941v24.504h-3.6C156.064,140.27,155.484,139.694,155.484,138.964"/>
	<path clip-path="url(#SVGID_2_)" fill="#FFFFFF" d="M210.057,133.301l5.569-17.182h5.064l-8.385,23.959l-0.062,0.191h-0.208h-3.588
		c-0.581,0-1.086-0.371-1.261-0.899l-8.248-23.251h5.452L210.057,133.301z"/>
	<path clip-path="url(#SVGID_2_)" fill="#FFFFFF" d="M180.146,122.763l-5.347,17.519h-3.838c-0.584,0-1.073-0.372-1.252-0.896
		l-6.634-23.262h5.441l4.284,16.564l5.132-16.564h4.838l5.249,16.564l4.284-16.564h5.06l-6.646,24.157h-3.895
		c-0.599,0-1.105-0.372-1.239-0.759L180.146,122.763z"/>
	<path clip-path="url(#SVGID_2_)" fill="#FFFFFF" d="M31.553,121.626c-2.401-1.449-6.099-0.599-8.101,2.401v16.242h-3.8
		c-0.748,0-1.347-0.598-1.347-1.301v-22.19l5.147-0.948v4.046c1.453-2.603,3.8-3.994,6.248-3.994c0,0,1.397,0,2.551,0.398
		L31.553,121.626z"/>
	<path clip-path="url(#SVGID_2_)" fill="#FFFFFF" d="M43.847,120.075c-2.649,0-4.944,0.554-7.697,1.902l-1.103-3.951
		c3.202-1.799,6.102-2.396,9.85-2.396c2.498,0,5.298,0.799,6.799,3c1.049,1.497,1.249,3.243,1.249,6.443v15.2h-3.498
		c-0.749,0-1.302-0.602-1.302-1.299v-2.305c-0.649,0.904-1.801,2.006-2.495,2.502c-1.502,0.996-3.153,1.398-5.353,1.398
		c-2.097,0-3.747-0.55-4.949-1.747c-1.296-1.304-1.897-3.199-1.897-5.652c0-5.396,3.1-8.045,9.498-8.045
		c1.748,0,2.846,0.102,5,0.549v-1.396C47.948,121.577,47.347,120.075,43.847,120.075 M38.448,132.876c0,2,0.95,3.397,2.899,3.397
		c2.65,0,4.796-1.047,6.601-3.249v-3.499c-1.351-0.25-2.899-0.453-4.102-0.453C40.098,129.072,38.448,129.926,38.448,132.876"/>
	<path clip-path="url(#SVGID_2_)" fill="#FFFFFF" d="M67.216,120.075c-2.649,0-4.949,0.554-7.694,1.902l-1.107-3.951
		c3.205-1.799,6.103-2.396,9.85-2.396c2.502,0,5.299,0.799,6.801,3c1.045,1.497,1.252,3.243,1.252,6.443v15.2h-3.505
		c-0.746,0-1.299-0.602-1.299-1.299v-2.305c-0.648,0.904-1.798,2.006-2.497,2.502c-1.501,0.996-3.15,1.398-5.351,1.398
		c-2.097,0-3.748-0.55-4.948-1.747c-1.299-1.304-1.898-3.199-1.898-5.652c0-5.396,3.099-8.045,9.498-8.045
		c1.75,0,2.846,0.102,4.996,0.549v-1.396C71.312,121.577,70.714,120.075,67.216,120.075 M61.817,132.876
		c0,2,0.949,3.397,2.898,3.397c2.65,0,4.797-1.047,6.597-3.249v-3.499c-1.348-0.25-2.897-0.453-4.097-0.453
		C63.465,129.072,61.817,129.926,61.817,132.876"/>
	<path clip-path="url(#SVGID_2_)" fill="#FFFFFF" d="M89.01,140.771c-2.251,0-4.249-0.801-5.847-2.4
		c-2.255-2.252-3.448-5.799-3.448-9.994c0-7.501,4.097-12.747,9.994-12.747c2.7,0,4.796,0.997,6.347,3.095v-12.141l5.05-0.953
		v34.691h-3.499c-0.747,0-1.302-0.601-1.302-1.348v-2.252C94.559,139.472,92.009,140.771,89.01,140.771 M90.31,120.178
		c-1.3,0-2.451,0.451-3.299,1.348c-1.351,1.354-2.101,3.649-2.101,6.698c0,3.099,0.699,5.452,2.05,6.798
		c0.853,0.852,1.851,1.252,3.046,1.252c0.755,0,1.5-0.204,2.352-0.556c1.554-0.596,2.299-1.242,3.698-3.044v-8.552
		c-0.5-0.844-0.997-1.547-1.497-2.145C93.512,120.827,91.908,120.178,90.31,120.178"/>
	<path clip-path="url(#SVGID_2_)" fill="#FFFFFF" d="M27.092,100.16c0.139,0.312,0.025,0.705-0.284,0.956
		c-0.816,0.678-2.277,1.182-3.966,1.182c-1.547,0-2.897-0.535-3.91-1.547c-1.265-1.237-1.912-3.124-1.912-5.397
		c0-4.36,2.42-7.173,6.136-7.173c1.601,0,2.947,0.479,4.103,1.46l-0.701,2.42c-1.128-0.926-2.084-1.347-3.291-1.347
		c-0.898,0-1.636,0.279-2.168,0.814c-0.729,0.73-1.122,2.001-1.122,3.627c0,1.689,0.363,2.925,1.122,3.685
		c0.564,0.563,1.325,0.844,2.28,0.844c0.365,0,0.702-0.029,0.985-0.114c0.615-0.115,1.234-0.394,2.02-0.955
		C26.78,99.435,27.092,100.16,27.092,100.16"/>
	<path clip-path="url(#SVGID_2_)" fill="#FFFFFF" d="M29.059,101.312V82.977l2.842-0.531v19.6h-2.079
		C29.398,102.045,29.059,101.708,29.059,101.312"/>
	<path clip-path="url(#SVGID_2_)" fill="#FFFFFF" d="M36.286,86.774c-0.954,0-1.744-0.784-1.744-1.744
		c0-0.98,0.79-1.743,1.744-1.743c0.955,0,1.741,0.763,1.741,1.743C38.027,85.99,37.241,86.774,36.286,86.774 M35.612,102.045
		c-0.424,0-0.76-0.337-0.76-0.729l0.025-12.491l2.812-0.53v13.75H35.612z"/>
	<path clip-path="url(#SVGID_2_)" fill="#FFFFFF" d="M50.518,98.529c0.392,0.846,0.701,1.547,0.701,1.547
		c0.139,0.336,0.053,0.732-0.279,0.985c-1.1,0.791-2.816,1.268-4.443,1.268c-1.805,0-3.349-0.618-4.503-1.772
		c-1.292-1.268-1.968-3.124-1.968-5.348c0-4.271,2.477-7.028,6.356-7.028c1.716,0,3.067,0.507,3.99,1.549
		c0.508,0.558,0.873,1.149,1.1,1.769c0.422,1.07,0.531,1.886,0.531,3.771v0.758H42.98c0.081,0.9,0.167,1.293,0.39,1.772
		c0.567,1.236,1.8,1.941,3.402,1.941c0.451,0,0.872-0.03,1.236-0.114C48.912,99.431,49.898,99.036,50.518,98.529 M43.71,86.297
		c-0.817,0-1.464-0.645-1.464-1.462c0-0.816,0.646-1.46,1.464-1.46c0.814,0,1.46,0.644,1.46,1.46
		C45.17,85.652,44.524,86.297,43.71,86.297 M49.108,93.776c-0.082-1.239-0.227-1.74-0.646-2.334
		c-0.479-0.646-1.294-1.011-2.28-1.011c-0.899,0-1.687,0.307-2.245,0.897c-0.2,0.2-0.368,0.453-0.511,0.681
		c-0.252,0.501-0.338,0.897-0.446,1.767H49.108z M48.717,86.297c-0.818,0-1.462-0.645-1.462-1.462c0-0.816,0.644-1.46,1.462-1.46
		c0.813,0,1.461,0.644,1.461,1.46C50.178,85.652,49.53,86.297,48.717,86.297"/>
	<path clip-path="url(#SVGID_2_)" fill="#FFFFFF" d="M60.328,90.907c-1.378,0-2.302,0.79-3.205,2.17v8.968h-2.08
		c-0.418,0-0.763-0.337-0.763-0.729V88.855l2.843-0.503v2.164c1.068-1.605,2.844-2.277,4.444-2.277c1.206,0,2.305,0.532,2.81,1.434
		c0.477,0.785,0.565,1.487,0.565,3.486v8.886h-2.11c-0.396,0-0.732-0.337-0.732-0.729v-7.483
		C62.1,91.839,61.99,90.907,60.328,90.907"/>
	<path clip-path="url(#SVGID_2_)" fill="#FFFFFF" d="M75.12,100.64c0.113,0.338,0,0.704-0.364,0.926
		c-0.397,0.228-1.379,0.677-2.813,0.677c-1.012,0-1.744-0.252-2.28-0.788c-0.672-0.646-0.983-1.771-0.983-3.458V90.77h-1.993v-2.167
		h1.993v-3.091l2.84-0.535v3.626h3.406v2.167h-3.406v6.947c0,0.897,0.114,1.459,0.397,1.741c0.195,0.169,0.45,0.255,0.842,0.255
		c0.763,0,1.463-0.283,1.854-0.51C74.869,99.885,75.12,100.64,75.12,100.64"/>
	<path clip-path="url(#SVGID_2_)" fill="#FFFFFF" d="M86.683,98.529c0.388,0.848,0.699,1.547,0.699,1.547
		c0.142,0.334,0.055,0.732-0.28,0.987c-1.1,0.783-2.813,1.266-4.444,1.266c-1.801,0-3.345-0.618-4.499-1.771
		c-1.295-1.297-1.967-3.126-1.967-5.346c0-4.274,2.476-7.034,6.353-7.034c1.718,0,3.068,0.511,3.996,1.552
		c0.504,0.561,0.87,1.152,1.093,1.771c0.423,1.067,0.536,1.883,0.536,3.767v0.76h-9.024c0.082,0.898,0.168,1.293,0.391,1.77
		c0.567,1.239,1.802,1.944,3.402,1.944c0.451,0,0.87-0.028,1.238-0.114C85.078,99.43,86.06,99.036,86.683,98.529 M85.27,93.776
		c-0.08-1.235-0.223-1.743-0.646-2.333c-0.477-0.645-1.294-1.014-2.275-1.014c-0.903,0-1.688,0.312-2.246,0.902
		c-0.2,0.196-0.368,0.449-0.511,0.674c-0.252,0.508-0.336,0.901-0.447,1.771H85.27z"/>
	<path clip-path="url(#SVGID_2_)" fill="#FFFFFF" d="M96.493,90.907c-1.377,0-2.306,0.79-3.203,2.17v8.968h-2.084
		c-0.42,0-0.762-0.337-0.762-0.729V88.855l2.846-0.503v2.164c1.064-1.605,2.84-2.277,4.441-2.277c1.208,0,2.307,0.532,2.813,1.434
		c0.474,0.785,0.562,1.487,0.562,3.486v8.886h-2.11c-0.394,0-0.731-0.337-0.731-0.729v-7.483
		C98.266,91.839,98.151,90.907,96.493,90.907"/>
</g>
</svg>
